<svg width="64" height="64" viewBox="0 0 64 64" fill="none" xmlns="http://www.w3.org/2000/svg" aria-hidden="true">
  <path d="M20 52C20 45.3726 25.3726 40 32 40V52C32 58.6274 26.6274 64 20 64C13.3726 64 8 58.6274 8 52C8 45.3726 13.3726 40 20 40V52Z" fill="#0ACF83"/>
  <path d="M8 32C8 25.3726 13.3726 20 20 20H32V44H20C13.3726 44 8 38.6274 8 32Z" fill="#A259FF"/>
  <path d="M8 12C8 5.37258 13.3726 0 20 0H32V24H20C13.3726 24 8 18.6274 8 12Z" fill="#F24E1E"/>
  <path d="M32 0H44C50.6274 0 56 5.37258 56 12C56 18.6274 50.6274 24 44 24H32V0Z" fill="#FF7262"/>
  <path d="M56 32C56 38.6274 50.6274 44 44 44C37.3726 44 32 38.6274 32 32C32 25.3726 37.3726 20 44 20C50.6274 20 56 25.3726 56 32Z" fill="#1ABCFE"/>
</svg>
